# xmcd CD database file
#
# Track frame offsets:
#	182
#	14290
#	26502
#	40262
#	53860
#	67775
#	81210
#	95300
#	108320
#	121027
#	134107
#	148930
#	162777
#	176057
#	191212
#	205990
#	216502
#	228920
#	242537
#	256730
#
# Disc length: 3600 seconds
#
# Revision: 4
# Processed by: cddbd v1.5.1PL2 Copyright (c) Steve Scherf et al.
# Submitted via: CDex 1.51
#
DISCID=180e0e14
DTITLE=Billie_Holliday - 20 Reflective Recordings
DYEAR=1900
DGENRE=Jazz
TTITLE0=Night and Day
TTITLE1=Hello My Darling
TTITLE2=What a Little Moonlight Can Do
TTITLE3=I'll Never Fail You
TTITLE4=Miss Brown to You
TTITLE5=I Wish I Had You
TTITLE6=24 Hours a Day
TTITLE7=Let's Dream in the Moonlight
TTITLE8=Yankee Doodle Never Went to Town
TTITLE9=You're so Desireable
TTITLE10=If You Were Mine
TTITLE11=Georgia on My Mind
TTITLE12=You're Gonna See a Lot of Me
TTITLE13=Loveless Joe
TTITLE14=These 'N' That 'N' Those
TTITLE15=Please Keep Me in Your Dreams
TTITLE16=What is this Going to Get Us
TTITLE17=Let's Call a Heart a Heart
TTITLE18=More than You Know
TTITLE19=Spreadin' Rhythm Around
EXTD=
EXTT0=
EXTT1=
EXTT2=
EXTT3=
EXTT4=
EXTT5=
EXTT6=
EXTT7=
EXTT8=
EXTT9=
EXTT10=
EXTT11=
EXTT12=
EXTT13=
EXTT14=
EXTT15=
EXTT16=
EXTT17=
EXTT18=
EXTT19=
PLAYORDER=
